
<svg width="65px" height="65px" viewBox="0 0 65 65" version="1.1" xmlns="http://www.w3.org/2000/svg" xmlns:xlink="http://www.w3.org/1999/xlink">
    <!-- Generator: Sketch 48.1 (47250) - http://www.bohemiancoding.com/sketch -->
    <desc>Created with Sketch.</desc>
    <defs>
        <filter x="-19.4%" y="-13.9%" width="138.9%" height="138.9%" filterUnits="objectBoundingBox" id="filter-1">
            <feOffset dx="0" dy="2" in="SourceAlpha" result="shadowOffsetOuter1"></feOffset>
            <feGaussianBlur stdDeviation="2" in="shadowOffsetOuter1" result="shadowBlurOuter1"></feGaussianBlur>
            <feColorMatrix values="0 0 0 0 0.195668112   0 0 0 0 0.213651677   0 0 0 0 0.227014243  0 0 0 0.101817255 0" type="matrix" in="shadowBlurOuter1" result="shadowMatrixOuter1"></feColorMatrix>
            <feMerge>
                <feMergeNode in="shadowMatrixOuter1"></feMergeNode>
                <feMergeNode in="SourceGraphic"></feMergeNode>
            </feMerge>
        </filter>
    </defs>
    <g id="Symbols" stroke="none" stroke-width="1" fill="none" fill-rule="evenodd">
        <g id="Oval-2">
            <circle fill="#F8F8FD" cx="32.5" cy="32.5" r="32.5"></circle>
            <g id="icon-vlaue-2" filter="url(#filter-1)" transform="translate(15.000000, 15.000000)">
                <path d="M0,7 L36,7 L36,33 C36,34.6568542 34.6568542,36 33,36 L3,36 C1.34314575,36 2.02906125e-16,34.6568542 0,33 L0,7 Z" id="Rectangle" fill="#FFFFFF"></path>
                <path d="M3,0 L33,0 C34.6568542,-3.04359188e-16 36,1.34314575 36,3 L36,7 L0,7 L0,3 C-2.02906125e-16,1.34314575 1.34314575,3.04359188e-16 3,0 Z" id="Rectangle" fill="#D2DDE0"></path>
                <circle id="Oval-4" fill="#FD5D65" cx="3.5" cy="3.5" r="1.5"></circle>
                <circle id="Oval-4" fill="#FFD618" cx="8.5" cy="3.5" r="1.5"></circle>
                <circle id="Oval-4" fill="#85E391" cx="13.5" cy="3.5" r="1.5"></circle>
                <g id="polo-shirt" transform="translate(10.000000, 13.000000)" fill-rule="nonzero">
                    <polygon id="Shape" fill="#5085BA" points="6.60949593 1.20260163 9.39043902 1.20260163 7.99996748 2.88884553"></polygon>
                    <polygon id="Shape" fill="#2B709E" points="8.57756098 2.18839024 7.7643252 1.20260163 6.60949593 1.20260163 7.99996748 2.88884553"></polygon>
                    <path d="M13.4310894,2.3220813 C13.215935,2.07590244 12.9466667,1.88292683 12.6443577,1.75837398 L11.1256911,1.13245528 C10.4954146,0.286081301 10.4642927,0.257430894 10.2274797,0.140292683 L8,2.77642276 L5.77245528,0.140292683 C5.52065041,0.264845528 5.45134959,0.357463415 4.87421138,1.13245528 L3.35554472,1.75837398 C3.05326829,1.88295935 2.78396748,2.07590244 2.56881301,2.3220813 C-0.0678699187,5.34097561 0.0875121951,5.15606504 0.0636097561,5.19414634 C-0.00393495935,5.30149593 0.00484552846,5.4380813 0.0795447154,5.53564228 C0.115317073,5.58253659 2.09977236,7.13941463 2.10318699,7.14204878 C2.22682927,7.23863415 2.39798374,7.24097561 2.52435772,7.15326829 C2.60526829,7.09710569 3.07193496,6.52214634 3.14373984,6.45463415 C3.1937561,6.41242276 3.27463415,6.43541463 3.29144715,6.50286179 C3.40855285,6.98627642 3.50390244,7.75001626 3.55021138,8.24546341 C3.91990244,12.1988618 2.99977236,15.0489106 3.02393496,15.318374 C3.04354472,15.5371382 3.17385366,15.7293333 3.36673171,15.8196748 C3.51860163,15.8913821 3.94855285,16.0577886 4.41853659,16.190439 C6.59112195,16.8049106 9.41765854,16.802374 11.5813008,16.190439 C12.0626016,16.0546016 12.5253008,15.8727805 12.6406829,15.8161626 C12.8348618,15.7207154 12.9569756,15.528813 12.9758699,15.3183415 C13.0048455,14.9952195 12.5189919,13.8098211 12.3885854,11.2166829 C12.316748,9.78806504 12.4056911,7.78120325 12.7083252,6.50276423 C12.7259512,6.43203252 12.8166504,6.40692683 12.8685854,6.46708943 C13.7016911,7.43346341 13.2892033,6.95499187 13.4084553,7.09330081 C13.4714797,7.1664065 13.5664065,7.21417886 13.6705041,7.21665041 C13.868878,7.22139837 13.9458862,7.08318699 14.2057886,6.89856911 C15.9284228,5.54152846 15.968878,5.55834146 15.9809756,5.37317073 C15.9832846,5.33973984 16.0143089,5.30887805 13.4310894,2.3220813 Z" id="Shape" fill="#70BBEF"></path>
                    <g id="Group" transform="translate(0.000000, 1.040650)" fill="#57ADDD">
                        <path d="M4.92178862,0.0277723577 C4.90627642,0.0486829268 4.89053659,0.0699186992 4.8742439,0.091804878 L3.35557724,0.717723577 C3.05330081,0.842308943 2.784,1.03525203 2.56884553,1.28143089 C-0.0678373984,4.3003252 0.0875772358,4.11541463 0.0636422764,4.15349593 C-0.00390243902,4.26084553 0.00487804878,4.39743089 0.0795772358,4.49499187 C0.091902439,4.51112195 0.33502439,4.70614634 0.648813008,4.95508943 C0.626829268,4.87606504 0.636487805,4.78907317 0.682731707,4.71557724 C0.706666667,4.67752846 0.551252033,4.86243902 3.18793496,1.8435122 C3.40308943,1.59733333 3.67235772,1.40435772 3.97466667,1.27980488 L5.39902439,0.692780488 L4.92178862,0.0277723577 Z" id="Shape"></path>
                        <path d="M3.87118699,14.6072846 C3.84702439,14.3319675 4.76715447,11.4202927 4.39746341,7.38143089 C4.35115447,6.87525203 4.25580488,6.09499187 4.13869919,5.60113821 C3.86289431,4.45014634 3.13115447,5.42656911 3.13115447,5.42656911 L3.13105691,5.42686179 C3.136,5.42165854 3.1404878,5.41707317 3.14380488,5.41395122 C3.19385366,5.37173984 3.27469919,5.39473171 3.2915122,5.46217886 C3.35456911,5.72243902 3.41118699,6.06390244 3.45736585,6.40104065 L3.45739837,6.40104065 C4.05268293,10.7444553 2.9979187,13.987187 3.02396748,14.2777236 C3.04357724,14.4964878 3.17385366,14.6886829 3.36676423,14.7790244 C3.48478049,14.8347317 3.77086179,14.9475772 4.11294309,15.0573984 C3.97639024,14.9529756 3.88715447,14.7891382 3.87118699,14.6072846 Z" id="Shape"></path>
                    </g>
                    <path d="M5.76946341,0.0766504065 L6.61560976,1.29518699 L9.31918699,1.29518699 L10.2337236,0.0724552846 C10.1558374,0.0334634146 10.0625366,0.00448780488 9.956,0.00448780488 C5.94569106,0.0348292683 6.04413008,-0.0607154472 5.76946341,0.0766504065 Z" id="Shape" fill="#656566"></path>
                    <path d="M6.77466667,0.00292682927 C5.96380488,-0.00435772358 5.93073171,-0.004 5.76946341,0.0766178862 L6.61560976,1.29515447 L7.84071545,1.29515447 L6.77466667,0.00292682927 Z" id="Shape" fill="#545456"></path>
                    <path d="M0.642178862,4.52650407 L0.0919349593,5.15606504 C-0.0210731707,5.28536585 -0.00273170732,5.48295935 0.132162602,5.58923577 L2.10117073,7.14058537 C2.25089431,7.25853659 2.46692683,7.2377561 2.59141463,7.09336585 L3.13118699,6.46721951 L0.642178862,4.52650407 Z" id="Shape" fill="#656566"></path>
                    <path d="M1.30247154,5.04136585 L0.642178862,4.52650407 C0.0748292683,5.1761626 0.032195122,5.19544715 0.0193821138,5.32299187 C0.0153170732,5.36217886 0.0197073171,5.40949593 0.0353170732,5.45356098 C0.0671869919,5.54390244 0.0446504065,5.51639024 0.648813008,5.99573984 C0.626829268,5.91671545 0.636487805,5.82972358 0.682731707,5.75622764 C0.698146341,5.7316748 0.639252033,5.79957724 1.30247154,5.04136585 Z" id="Shape" fill="#545456"></path>
                    <g id="Group" transform="translate(4.845528, 0.065041)" fill="#656566">
                        <path d="M10.5121951,4.46146341 L11.062439,5.09102439 C11.1754472,5.2203252 11.1571057,5.4179187 11.0222114,5.52419512 L9.05320325,7.07554472 C8.90347967,7.19349593 8.68744715,7.17271545 8.56295935,7.0283252 L8.02318699,6.40217886 L10.5121951,4.46146341 Z" id="Shape"></path>
                        <circle id="Oval" cx="3.15453659" cy="4.39902439" r="1"></circle>
                        <circle id="Oval" cx="3.15453659" cy="5.56390244" r="1"></circle>
                        <path d="M0.66302439,0.215512195 L0.0286504065,1.06738211 L1.70321951,3.40078049 C1.80809756,3.54702439 1.98630894,3.57658537 2.12543089,3.47209756 L3.1544065,2.71134959 L0.926926829,0.0100813008 C0.761495935,0.091902439 0.66302439,0.215512195 0.66302439,0.215512195 Z" id="Shape"></path>
                        <path d="M5.64582114,0.215512195 C5.64582114,0.215512195 5.55030894,0.0875772358 5.38536585,0.00588617886 L3.1544065,2.71134959 L4.22747967,3.50985366 C4.34494309,3.59691057 4.48884553,3.56530081 4.57635772,3.45092683 L6.2801626,1.06734959 L5.64582114,0.215512195 Z" id="Shape"></path>
                    </g>
                </g>
            </g>
        </g>
    </g>
</svg>