<svg width="65px" height="65px" viewBox="0 0 65 65" version="1.1" xmlns="http://www.w3.org/2000/svg" xmlns:xlink="http://www.w3.org/1999/xlink">
    <!-- Generator: Sketch 48.1 (47250) - http://www.bohemiancoding.com/sketch -->
    <desc>Created with Sketch.</desc>
    <defs>
        <filter x="-13.5%" y="-15.2%" width="126.9%" height="142.4%" filterUnits="objectBoundingBox" id="filter-1">
            <feOffset dx="0" dy="2" in="SourceAlpha" result="shadowOffsetOuter1"></feOffset>
            <feGaussianBlur stdDeviation="2" in="shadowOffsetOuter1" result="shadowBlurOuter1"></feGaussianBlur>
            <feColorMatrix values="0 0 0 0 0.195668112   0 0 0 0 0.213651677   0 0 0 0 0.227014243  0 0 0 0.101817255 0" type="matrix" in="shadowBlurOuter1" result="shadowMatrixOuter1"></feColorMatrix>
            <feMerge>
                <feMergeNode in="shadowMatrixOuter1"></feMergeNode>
                <feMergeNode in="SourceGraphic"></feMergeNode>
            </feMerge>
        </filter>
    </defs>
    <g id="Page-1" stroke="none" stroke-width="1" fill="none" fill-rule="evenodd">
        <g id="Mission" transform="translate(-830.000000, -276.000000)">
            <g id="Values" transform="translate(830.000000, 200.000000)">
                <g id="value-01" transform="translate(0.000000, 76.000000)">
                    <circle id="Oval-2" fill="#F8F8FD" cx="32.5" cy="32.5" r="32.5"></circle>
                    <g id="icon-value-1" filter="url(#filter-1)" transform="translate(7.000000, 16.000000)" fill-rule="nonzero">
                        <path d="M39.7493164,21.8109375 L42.5541016,15.9869141 C43.1259766,14.7981445 44.5188477,14.2573242 45.740332,14.7426758 C45.7464844,14.7451172 45.7525391,14.7474609 45.7587891,14.75 C47.0470703,15.2726562 47.6634766,16.7435547 47.1347656,18.0293945 L46.5594727,19.428125" id="Shape" fill="#E0B394"></path>
                        <g id="heart" transform="translate(18.000000, 0.000000)">
                            <path d="M22.812278,2.19200407 C19.109945,-1.53042479 15.4388787,0.0961903252 12.5002568,2.75145047 C9.56011632,0.0961903252 5.91960204,-1.55951959 2.18752103,2.19200407 C-0.722156792,5.11522377 -0.736182134,9.81286738 2.18752103,12.7203723 C12.4682755,22.0165217 12.4658635,21.9999987 12.4658635,21.9999987 C12.4658635,21.9999987 12.4806928,22.0306201 22.811474,12.7202825 C25.7367851,9.81277758 25.7219558,5.11522377 22.812278,2.19200407 Z" id="Shape" fill="#FD5D65"></path>
                            <path d="M11.6760867,21.2914355 C10.6081561,20.3298116 8.09617758,18.0631469 2.18752103,12.7203723 C-0.736182134,9.81286738 -0.722156792,5.11522377 2.18752103,2.19200407 C4.34094787,0.0273587385 6.46388903,-0.337034815 8.43939004,0.252088306 C7.51235195,2.6349669 7,5.25279901 7,8 C7,13.1021705 8.7672478,17.7581108 11.6760867,21.2914355 Z" id="Combined-Shape" fill="#E54E5C"></path>
                        </g>
                        <path d="M50.0675781,24.6795898 L33.4498047,31.6110352 C31.7798828,32.3084961 29.9132813,32.3791992 28.1950195,31.8131836 L10.9259766,26.1226563 C10.0387695,25.8306641 9.07294922,25.8755859 8.21601563,26.2517578 C5.87660225,26.2103888 3.97794174,24.7989998 2.52003411,22.0175908 C0.333172655,17.8454773 -0.73652985,16.6227392 2,13.7253906 C3.82435323,11.7938249 6.52490662,9.9947038 10.1016602,8.32802734 C12.5701172,6.68271484 15.6708984,6.20771484 18.4740234,7.17128906 C18.5874023,7.20947266 18.7008789,7.24990234 18.8131836,7.29482422 L34.0518555,13.140332 C34.7436523,13.4042969 35.2557617,13.9287109 35.525293,14.5542969 C35.8038086,15.2000977 35.8274414,15.9525391 35.521875,16.6488281 C34.9738281,17.9043945 33.5542969,18.5299805 32.2571289,18.0863281 L22.5887695,14.7800781 C21.9901367,14.5745117 21.3691406,14.6172852 20.8345703,14.8474609 C20.1719727,15.1338867 19.6407227,15.7066406 19.4408203,16.4635742 C19.1139648,17.6956055 19.7923828,18.9702148 20.9951172,19.3914063 L32.0750977,23.2636719 C33.0611328,23.6084961 34.1335938,23.60625 35.1174805,23.2636719 L47.8213867,18.8186523 C49.3791016,18.2728516 51.090625,19.0264648 51.7419922,20.5369141 C52.4292969,22.1617188 51.6735352,24.009082 50.0675781,24.6795898 Z" id="Shape" fill="#F7CBA4"></path>
                        <path d="M1.13089174,19.3682813 C0.0361850572,17.1290851 -0.0520972786,15.8980843 2,13.7253906 C3.82435323,11.7938249 6.52490662,9.9947038 10.1016602,8.32802734 C12.5484391,6.69716404 15.6164848,6.21614804 18.4001037,7.14623529 C16.5670958,7.52374648 13.6423132,8.74096584 8.97965495,11.4192708 C4.7396973,13.8547699 2.1234429,16.50444 1.13089174,19.3682813 Z" id="Combined-Shape" fill="#E0B394"></path>
                    </g>
                </g>
            </g>
        </g>
    </g>
</svg>