
<svg width="65px" height="65px" viewBox="0 0 65 65" version="1.1" xmlns="http://www.w3.org/2000/svg" xmlns:xlink="http://www.w3.org/1999/xlink">
    <!-- Generator: Sketch 48.1 (47250) - http://www.bohemiancoding.com/sketch -->
    <desc>Created with Sketch.</desc>
    <defs>
        <filter x="-15.6%" y="-13.9%" width="131.1%" height="138.9%" filterUnits="objectBoundingBox" id="filter-1">
            <feOffset dx="0" dy="2" in="SourceAlpha" result="shadowOffsetOuter1"></feOffset>
            <feGaussianBlur stdDeviation="2" in="shadowOffsetOuter1" result="shadowBlurOuter1"></feGaussianBlur>
            <feColorMatrix values="0 0 0 0 0.195668112   0 0 0 0 0.213651677   0 0 0 0 0.227014243  0 0 0 0.101817255 0" type="matrix" in="shadowBlurOuter1" result="shadowMatrixOuter1"></feColorMatrix>
            <feMerge>
                <feMergeNode in="shadowMatrixOuter1"></feMergeNode>
                <feMergeNode in="SourceGraphic"></feMergeNode>
            </feMerge>
        </filter>
    </defs>
    <g id="Symbols" stroke="none" stroke-width="1" fill="none" fill-rule="evenodd">
        <g id="Oval-2">
            <circle fill="#F8F8FD" cx="32.5" cy="32.5" r="32.5"></circle>
            <g id="icon-vlaue-3" filter="url(#filter-1)" transform="translate(10.000000, 13.000000)" fill-rule="nonzero">
                <path d="M9.64045898,25.4594531 C4.3162207,25.4594531 0,29.7757617 0,35.1 L3.21345703,35.1 L12.8593652,35.1 L16.9372266,28.7996484 C15.1696582,26.7539941 12.5563184,25.4594531 9.64045898,25.4594531 Z" id="Shape" fill="#FFD618"></path>
                <path d="M35.359541,25.4594531 L41.786543,35.1 L45,35.1 C45,29.7757617 40.6837793,25.4594531 35.359541,25.4594531 Z" id="Shape" fill="#E54E5C"></path>
                <path d="M35.359541,25.4594531 C32.4437695,25.4594531 29.8303418,26.7539941 28.0625977,28.7995605 L32.140459,35.1 L41.7863672,35.1 C41.786543,29.7757617 38.9090918,25.4594531 35.359541,25.4594531 Z" id="Shape" fill="#FD5D65"></path>
                <path d="M16.0702734,0.734238281 L16.0702734,11.8582031 C19.1420508,11.8582031 21.6322559,9.36808594 21.6322559,6.2962207 C21.6322559,3.22435547 19.1420508,0.734238281 16.0702734,0.734238281 Z" id="Shape" fill="#A0613C"></path>
                <path d="M19.5553125,6.2962207 C19.5553125,3.22435547 17.9949902,0.734238281 16.0702734,0.734238281 C12.9984961,0.734238281 10.508291,3.22444336 10.508291,6.2962207 C10.508291,9.36799805 12.9984961,11.8582031 16.0702734,11.8582031 C17.9950781,11.8582031 19.5553125,9.36808594 19.5553125,6.2962207 Z" id="Shape" fill="#BF7447"></path>
                <path d="M22.5,12.1101855 L22.5,23.2341504 C25.5717773,23.2341504 28.0619824,20.7440332 28.0619824,17.672168 C28.0619824,14.6003027 25.5717773,12.1101855 22.5,12.1101855 Z" id="Shape" fill="#E9BEA0"></path>
                <path d="M25.9850391,17.6722559 C25.9850391,14.6003906 24.4247168,12.1102734 22.5,12.1102734 C19.4282227,12.1102734 16.9380176,14.6004785 16.9380176,17.6722559 C16.9380176,20.7440332 19.4282227,23.2342383 22.5,23.2342383 C24.4247168,23.2341504 25.9850391,20.7440332 25.9850391,17.6722559 Z" id="Shape" fill="#F7CBA4"></path>
                <path d="M9.64045898,12.1101855 L9.64045898,23.2341504 C12.7122363,23.2341504 15.2024414,20.7440332 15.2024414,17.672168 C15.2024414,14.6003027 12.7123242,12.1101855 9.64045898,12.1101855 Z" id="Shape" fill="#FEAB75"></path>
                <path d="M13.1255859,17.6722559 C13.1255859,14.6003906 11.5652637,12.1102734 9.64054687,12.1102734 C6.56876953,12.1102734 4.07856445,14.6004785 4.07856445,17.6722559 C4.07856445,20.7440332 6.56876953,23.2342383 9.64054687,23.2342383 C11.5652637,23.2341504 13.1255859,20.7440332 13.1255859,17.6722559 Z" id="Shape" fill="#FF9B5F"></path>
                <path d="M35.359541,12.1101855 L35.359541,23.2341504 C38.4313184,23.2341504 40.9215234,20.7440332 40.9215234,17.672168 C40.9215234,14.6003027 38.4313184,12.1101855 35.359541,12.1101855 Z" id="Shape" fill="#804E30"></path>
                <path d="M38.8445801,17.6722559 C38.8445801,14.6003906 37.2842578,12.1102734 35.359541,12.1102734 C32.2877637,12.1102734 29.7975586,14.6004785 29.7975586,17.6722559 C29.7975586,20.7440332 32.2877637,23.2342383 35.359541,23.2342383 C37.2842578,23.2341504 38.8445801,20.7440332 38.8445801,17.6722559 Z" id="Shape" fill="#A0613C"></path>
                <path d="M22.5,25.4594531 L28.927002,35.1 L32.140459,35.1 C32.140459,29.7757617 27.8243262,25.4594531 22.5,25.4594531 Z" id="Shape" fill="#94BFE3"></path>
                <path d="M22.5,25.4594531 C17.1756738,25.4594531 12.859541,29.7756738 12.859541,35.1 L28.927002,35.1 C28.927002,29.7757617 26.0495508,25.4594531 22.5,25.4594531 Z" id="Shape" fill="#ADD9FF"></path>
                <path d="M28.9297266,0.734238281 L28.9297266,11.8582031 C32.0015039,11.8582031 34.491709,9.36808594 34.491709,6.2962207 C34.491709,3.22435547 32.0015039,0.734238281 28.9297266,0.734238281 Z" id="Shape" fill="#FEAB75"></path>
                <path d="M32.4148535,6.2962207 C32.4148535,3.22435547 30.8545312,0.734238281 28.9298145,0.734238281 C25.8580371,0.734238281 23.367832,3.22444336 23.367832,6.2962207 C23.367832,9.36799805 25.8579492,11.8582031 28.9298145,11.8582031 C30.8544434,11.8582031 32.4148535,9.36808594 32.4148535,6.2962207 Z" id="Shape" fill="#FEBB8E"></path>
                <path d="M16.0646484,8.89119141 C15.2136035,8.89119141 14.4155566,8.4722168 13.929873,7.77041016 C13.6967871,7.43352539 13.7808105,6.97148437 14.1176074,6.73839844 C14.454668,6.50522461 14.9166211,6.58933594 15.149707,6.9262207 C15.3582715,7.22768555 15.7004297,7.40768555 16.0646484,7.40768555 C16.4337891,7.40768555 16.7783203,7.22399414 16.9864453,6.91628906 C17.2159277,6.57694336 17.6770898,6.48782227 18.0162598,6.7172168 C18.3556934,6.94669922 18.4448145,7.40777344 18.215332,7.74720703 C17.7309668,8.46360352 16.9269434,8.89119141 16.0646484,8.89119141 Z" id="Shape" fill="#804E30"></path>
                <path d="M22.4942871,20.2672266 C21.6432422,20.2672266 20.8451953,19.848252 20.3595117,19.1464453 C20.1264258,18.8095605 20.2104492,18.3475195 20.5472461,18.1144336 C20.8843066,17.881084 21.3462598,17.9653711 21.5793457,18.3022559 C21.7879102,18.6037207 22.1300684,18.7837207 22.4942871,18.7837207 C22.8634277,18.7837207 23.207959,18.6000293 23.416084,18.2923242 C23.6455664,17.9530664 24.1067285,17.8637695 24.4458984,18.093252 C24.785332,18.3227344 24.8744531,18.7838086 24.6449707,19.1232422 C24.1607812,19.8395508 23.3566699,20.2672266 22.4942871,20.2672266 Z" id="Shape" fill="#FD5D65"></path>
                <path d="M9.64054687,20.2672266 C8.78950195,20.2672266 7.99145508,19.848252 7.50577148,19.1464453 C7.27268555,18.8095605 7.35670898,18.3475195 7.69350586,18.1144336 C8.0306543,17.881084 8.49251953,17.9653711 8.72560547,18.3022559 C8.93416992,18.6037207 9.27632812,18.7837207 9.64054687,18.7837207 C10.0096875,18.7837207 10.3542187,18.6000293 10.5623437,18.2923242 C10.7918262,17.9530664 11.2529883,17.8637695 11.5921582,18.093252 C11.9315918,18.3227344 12.0207129,18.7838086 11.7912305,19.1232422 C11.3069531,19.8395508 10.5029297,20.2672266 9.64054687,20.2672266 Z" id="Shape" fill="#FD5D65"></path>
                <path d="M35.3537402,20.2672266 C34.5026953,20.2672266 33.7046484,19.848252 33.2189648,19.1464453 C32.9858789,18.8095605 33.0699023,18.3475195 33.4066992,18.1144336 C33.7437598,17.881084 34.2057129,17.9653711 34.4387988,18.3022559 C34.6473633,18.6037207 34.9895215,18.7837207 35.3537402,18.7837207 C35.7228809,18.7837207 36.0674121,18.6000293 36.2755371,18.2923242 C36.5049316,17.9530664 36.9662695,17.8637695 37.3053516,18.093252 C37.6447852,18.3227344 37.7339062,18.7838086 37.5044238,19.1232422 C37.0201465,19.8395508 36.2162109,20.2672266 35.3537402,20.2672266 Z" id="Shape" fill="#DF8853"></path>
                <path d="M28.9240137,8.89119141 C28.0729688,8.89119141 27.2749219,8.4722168 26.7892383,7.77041016 C26.5561523,7.43352539 26.6401758,6.97148437 26.9769727,6.73839844 C27.3140332,6.50522461 27.7758984,6.58933594 28.0090723,6.9262207 C28.2176367,7.22768555 28.5597949,7.40768555 28.9240137,7.40768555 C29.2931543,7.40768555 29.6376855,7.22399414 29.8458105,6.91628906 C30.075293,6.57694336 30.5364551,6.48782227 30.875625,6.7172168 C31.2150586,6.94669922 31.3041797,7.40777344 31.0746973,7.74720703 C30.5905078,8.46360352 29.7864844,8.89119141 28.9240137,8.89119141 Z" id="Shape" fill="#FD5D65"></path>
            </g>
        </g>
    </g>
</svg>