<svg width="230px" height="230px" viewBox="0 0 230 230" version="1.1" xmlns="http://www.w3.org/2000/svg" xmlns:xlink="http://www.w3.org/1999/xlink">
    <g id="Symbols" stroke="none" stroke-width="1" fill="none" fill-rule="evenodd" opacity="0.300000012">
        <g id="instagram-logo" fill="#FFFFFF" fill-rule="nonzero">
            <g id="Shape">
                <path d="M166.526955,0 L63.4703245,0 C28.4728088,0 0,28.4741692 0,63.4716849 L0,166.528315 C0,201.527191 28.4728088,230 63.4703245,230 L166.526955,230 C201.527191,230 230,201.525831 230,166.528315 L230,63.4716849 C230.00136,28.4741692 201.527191,0 166.526955,0 Z M209.594646,166.528315 C209.594646,190.274929 190.274929,209.593285 166.528315,209.593285 L63.4703245,209.593285 C39.7250713,209.594646 20.4067147,190.274929 20.4067147,166.528315 L20.4067147,63.4716849 C20.4067147,39.7264317 39.7250713,20.4067147 63.4703245,20.4067147 L166.526955,20.4067147 C190.273568,20.4067147 209.593285,39.7264317 209.593285,63.4716849 L209.593285,166.528315 L209.594646,166.528315 Z"></path>
                <path d="M115.5,56 C82.6912058,56 56,82.6918186 56,115.501366 C56,148.309547 82.6912058,175 115.5,175 C148.308794,175 175,148.309547 175,115.501366 C175,82.6918186 148.308794,56 115.5,56 Z M115.5,154.510594 C93.9894176,154.510594 76.4875697,137.011076 76.4875697,115.5 C76.4875697,93.987558 93.9880518,76.4866742 115.5,76.4866742 C137.011948,76.4866742 154.51243,93.987558 154.51243,115.5 C154.51243,137.011076 137.010582,154.510594 115.5,154.510594 Z"></path>
                <path d="M176.5,39 C172.690455,39 168.948136,40.5422727 166.257727,43.2445455 C163.554136,45.9336364 162,49.6772727 162,53.5 C162,57.3108636 163.555455,61.0531818 166.257727,63.7554545 C168.946818,66.4445455 172.690455,68 176.5,68 C180.322727,68 184.053182,66.4445455 186.755455,63.7554545 C189.457727,61.0531818 191,57.3095455 191,53.5 C191,49.6772727 189.457727,45.9336364 186.755455,43.2445455 C184.066364,40.5422727 180.322727,39 176.5,39 Z"></path>
            </g>
        </g>
    </g>
</svg>