<svg width="91px" height="43px" viewBox="0 0 91 43" version="1.1" xmlns="http://www.w3.org/2000/svg" xmlns:xlink="http://www.w3.org/1999/xlink">
    <g id="Symbols" stroke="none" stroke-width="1" fill="none" fill-rule="evenodd" opacity="0.5">
        <g id="logo" fill="#FFFFFF">
            <g>
                <path d="M80.7468398,25.4003931 C79.6087204,25.3702037 79.98734,22.7321154 81.5345948,20.1536318 C83.1398669,17.4853541 85.2699323,15.5369772 86.2034841,15.6267713 C87.0496331,15.7165654 86.7874249,17.5755352 84.9493299,20.8731456 C83.4604692,23.5116209 81.9433534,25.4305825 80.7468398,25.4003931 M37.4090138,35.2343937 C36.8838438,34.4846904 38.1967688,30.3773851 41.9908771,28.1290496 C40.181414,32.5363136 37.788387,35.8041216 37.4090138,35.2343937 M90.9315209,21.4428736 C90.8151095,21.1731043 90.6105418,21.2032937 90.4643683,21.47345 C89.4434137,23.5414233 87.8381416,25.5803683 86.6412513,25.64036 C85.6493054,25.7003518 85.6786908,24.41111 86.4080517,22.7321154 C87.1087807,21.1429149 88.5678792,18.8945793 89.2098374,17.5453458 C89.9101896,16.0463264 89.6766133,14.7570846 89.238846,14.217159 C89.0346551,13.9477767 88.8010788,14.0073814 88.5384938,14.3971342 C88.2178915,14.8774551 87.8671503,15.5067878 87.4881538,16.2263016 C87.5465479,15.0570433 86.9629839,14.0673731 85.7076995,14.0673731 C84.248601,14.0673731 81.9433534,15.4166067 79.5789582,18.9545711 C79.0647136,19.7251746 78.6860939,20.5039061 78.4317971,21.2520611 C78.3824447,21.286508 78.3353527,21.3383718 78.2950419,21.4130712 C77.1569225,23.5116209 75.843244,25.4905742 74.6474839,25.5207636 C73.5967672,25.550953 73.1880087,24.171143 74.0047723,22.4623461 C74.7348867,20.9633267 76.1642231,18.9843734 76.6893931,17.6355269 C77.2737106,16.1361205 77.0401343,14.3673318 75.9897943,14.3371424 C75.0261036,14.3073401 73.0712205,15.7165654 71.6705161,17.1257907 C72.0498892,15.8063595 71.5247192,14.217159 70.5323966,14.1873566 C69.4816799,14.1575543 67.2928437,15.9263429 66.0089274,17.4559388 C66.4466946,16.256104 66.5340974,15.0872327 66.0379361,14.2477354 C65.8631306,13.9477767 65.6295543,13.9175873 65.4249866,14.2477354 C63.7643343,16.7940944 61.8652081,20.4899725 61.062007,22.5726535 C60.044443,24.2021065 58.8682732,25.5312138 57.8669089,25.5803683 C56.8161922,25.64036 56.6994041,24.3813076 57.4581504,22.6721236 C58.1294939,21.1429149 59.5885925,18.8945793 60.2305506,17.5453458 C60.9305261,16.0463264 60.6977033,14.7272823 60.259936,14.1873566 C60.0263597,13.8873979 59.821792,13.9477767 59.5301984,14.3673318 C58.5962698,15.6565736 57.7501208,17.725321 55.9116491,20.7833515 C54.3357624,23.3920245 52.7304903,25.4905742 51.5923708,25.4003931 C50.921404,25.3407884 50.8336245,24.2617112 51.446574,22.7921071 C52.0591467,21.3530795 52.6427108,20.1536318 53.7228129,18.3848431 C54.7731529,16.6760462 54.9189497,15.3271997 54.2773683,14.3371424 C54.043792,14.0673731 53.7521983,14.0379578 53.518622,14.3673318 C51.6213795,17.0956013 50.1332723,20.0340353 49.4913141,22.0126016 C49.4476128,22.1472927 49.4069253,22.283532 49.3707586,22.4197713 C48.2767173,23.6846294 46.8590597,24.9146535 45.113265,25.880327 C46.339164,22.9720823 48.1192416,19.3749003 48.9947761,17.6355269 C49.7531457,16.1063182 49.5199461,14.8166893 49.1111875,14.2775378 C48.8489792,14.0379578 48.6444116,14.0975625 48.3818266,14.4877024 C47.3604953,16.0165241 46.1055877,18.7149912 44.8506801,20.9331373 C43.3621961,23.5414233 41.9030976,25.4603848 40.7649781,25.3702037 C40.0936346,25.310986 40.0356172,24.2617112 40.6191813,22.7921071 C41.1733599,21.3828818 41.8156948,20.1536318 42.8664115,18.4150325 C43.9457602,16.6458568 44.1209424,15.3864173 43.4209669,14.4273236 C43.2163993,14.1273649 42.9244289,14.0975625 42.6912293,14.4273236 C40.7943635,17.1257907 39.3642737,20.09364 38.7223155,22.0126016 C38.0509719,23.9911678 38.109366,26.1802857 40.2104227,26.3598739 C41.3779276,26.4496679 42.4870384,25.6701624 43.3915815,24.7110687 C43.0706024,25.4305825 42.778632,26.1802857 42.4870384,26.8696101 C39.59785,28.0388684 37.1170434,29.8378465 36.2418857,32.5363136 C35.6579449,34.3047152 36.2418857,35.3543771 36.8254497,36.2538662 C37.3800051,37.0933635 37.9341838,37.0933635 38.4887392,36.8831989 C40.9111517,35.9237181 42.9831997,31.0968989 44.6174805,27.0793877 C46.4028324,26.3281363 47.980226,25.5103134 49.1435868,24.3882744 C49.2291059,25.452644 49.7493783,26.2708539 50.9794213,26.3598739 C52.6137021,26.4798573 54.1605801,24.9506486 55.1819114,23.5414233 C54.9483351,25.2807967 55.7070814,26.5100467 57.6039472,26.5100467 C58.6380875,26.5100467 59.7027435,25.9565746 60.5722502,25.1519112 C60.636672,25.6283617 60.8288074,25.9979882 61.1350937,26.2700798 C61.3980555,26.5100467 61.572861,26.3900632 61.6900259,26.1199069 C62.857154,23.3018434 64.2574817,20.5135822 65.9799187,18.5946207 C67.8473991,16.4960709 69.277489,15.686376 69.6271,15.8361618 C70.2114175,16.0463264 67.0592674,20.1838212 66.0967069,22.6721236 C65.2501811,24.8310521 65.6589397,25.9999234 66.1547242,26.4496679 C66.417686,26.7496266 66.6508856,26.6598325 66.8260678,26.2998821 C68.0519667,23.4818186 69.4816799,20.6033763 71.9037156,18.1150738 C73.8009581,16.1666969 74.7932808,15.8361618 75.0261036,15.9263429 C75.4642476,16.0761288 72.8670296,19.4341179 71.7873042,21.9231945 C70.7072021,24.3813076 71.6415074,26.4496679 74.1803313,26.4496679 C75.5979889,26.4496679 77.136202,25.3969097 78.0791722,24.0515466 C78.2588753,25.4460642 79.0748854,26.3900632 80.425484,26.3900632 C81.8265652,26.3900632 83.1398669,25.2807967 84.0734187,24.0519336 C84.0734187,25.4603848 84.8909358,26.4198656 86.4664458,26.5100467 C88.0713412,26.5998408 89.9101896,24.9506486 90.6689359,23.3018434 C91.0483091,22.4623461 91.0483091,21.713417 90.9315209,21.4428736" id="Fill-1"></path>
                <polygon id="Fill-4" points="8 9.5 14.5440779 0 21 9.5 14.5440779 19"></polygon>
                <polygon id="Fill-6" points="0 20.9998222 6.54426597 12 13 20.9998222 6.54426597 30"></polygon>
                <polygon id="Fill-8" points="8 33.4892511 22.5829413 12 29 21.5081192 14.506561 43"></polygon>
            </g>
        </g>
    </g>
</svg>