<svg id="Layer_1" data-name="Layer 1" xmlns="http://www.w3.org/2000/svg" viewBox="0 0 238.56 114.33"><defs><style>.cls-1{fill:#010101;}.cls-2{fill:#fbc311;}.cls-3{fill:#fed614;}.cls-4{fill:#fedf45;}</style></defs><title>Artboard 1</title><path class="cls-1" d="M238.33,59c-.31-.7-.85-.62-1.24.07-2.71,5.35-7,10.62-10.15,10.77-2.63.16-2.55-3.18-.62-7.51,1.86-4.11,5.74-9.92,7.44-13.4,1.86-3.88,1.24-7.21.08-8.6-.54-.7-1.16-.55-1.86.46-.85,1.24-1.78,2.87-2.79,4.73.16-3-1.39-5.58-4.73-5.58-3.87,0-10,3.49-16.26,12.63a25.35,25.35,0,0,0-3,5.93,1.28,1.28,0,0,0-.36.42c-3,5.42-6.51,10.53-9.68,10.61-2.79.08-3.88-3.49-1.71-7.9,1.94-3.87,5.73-9,7.13-12.47,1.55-3.88.93-8.45-1.86-8.52-2.56-.08-7.75,3.56-11.47,7.2,1-3.41-.38-7.51-3-7.59-2.79-.08-8.6,4.49-12,8.44,1.16-3.1,1.39-6.12.07-8.29-.46-.77-1.08-.85-1.62,0a137.94,137.94,0,0,0-11.58,21.51c-2.71,4.21-5.83,7.65-8.49,7.78s-3.09-3.1-1.08-7.52c1.78-3.95,5.65-9.76,7.36-13.24,1.86-3.88,1.24-7.29.08-8.68-.62-.78-1.17-.62-1.94.46-2.48,3.34-4.73,8.68-9.61,16.58-4.18,6.74-8.44,12.16-11.46,11.93-1.78-.15-2-2.94-.39-6.74a80.13,80.13,0,0,1,6-11.39c2.79-4.41,3.18-7.9,1.48-10.45a1.17,1.17,0,0,0-2,.07c-5,7.05-9,14.65-10.69,19.76-.11.35-.22.7-.32,1a41.15,41.15,0,0,1-11.3,8.94c3.26-7.51,8-16.81,10.3-21.3,2-4,1.4-7.28.31-8.68-.69-.62-1.24-.46-1.93.54-2.71,4-6,10.93-9.38,16.66-4,6.74-7.82,11.7-10.84,11.46-1.78-.15-1.94-2.86-.39-6.66a70.44,70.44,0,0,1,6-11.31c2.86-4.57,3.33-7.82,1.47-10.3a1.07,1.07,0,0,0-1.94,0,82.57,82.57,0,0,0-10.53,19.6c-1.78,5.11-1.63,10.76,4,11.23,3.1.23,6-1.78,8.44-4.26-.85,1.86-1.63,3.79-2.4,5.58-7.67,3-14.25,7.67-16.58,14.64-1.55,4.57,0,7.28,1.55,9.6s3,2.17,4.42,1.63c6.43-2.48,11.93-15,16.27-25.33,4.73-1.94,8.92-4.06,12-7,.23,2.75,1.61,4.86,4.87,5.09,4.34.31,8.45-3.64,11.16-7.28-.62,4.49,1.39,7.67,6.43,7.67a12.33,12.33,0,0,0,7.88-3.51,4.51,4.51,0,0,0,1.49,2.89c.7.62,1.16.31,1.47-.39,3.1-7.28,6.82-14.49,11.39-19.44,5-5.43,8.75-7.52,9.68-7.13,1.55.54-6.82,11.23-9.37,17.66-2.25,5.58-1.16,8.6.15,9.76.7.78,1.32.54,1.79-.39,3.25-7.28,7-14.71,13.47-21.14,5-5,7.67-5.89,8.29-5.66,1.16.39-5.73,9.07-8.6,15.5s-.38,11.69,6.36,11.69c3.76,0,7.84-2.72,10.35-6.2.47,3.61,2.64,6.05,6.22,6.05s7.21-2.87,9.69-6c0,3.64,2.17,6.11,6.35,6.35s9.14-4,11.15-8.29a6.94,6.94,0,0,0,.7-4.8M96.26,94.61c-1.39-1.94,2.09-12.55,12.16-18.36-4.8,11.39-11.15,19.83-12.16,18.36m115-25.41c-3-.08-2-6.89,2.09-13.56,4.26-6.89,9.91-11.92,12.39-11.69,2.25.23,1.55,5-3.33,13.55-3.95,6.82-8,11.78-11.15,11.7"/><polygon class="cls-2" points="22.15 25.34 39.67 0.03 56.95 25.34 39.67 50.66 22.15 25.34"/><polygon class="cls-3" points="0.04 57.31 17.55 32 34.84 57.31 17.55 82.63 0.04 57.31"/><polygon class="cls-4" points="22.02 89.02 61.28 31.82 78.56 57.13 39.54 114.33 22.02 89.02"/></svg>